<svg width="98" height="101" viewBox="0 0 98 101" fill="none" xmlns="http://www.w3.org/2000/svg">
<g filter="url(#filter0_f_2_830)">
<path d="M57 46.0239L51 40.7639C50.45 40.2719 49.738 40 49 40C48.2621 40 47.5501 40.2719 47 40.7639L41 46.0239C40.6824 46.3079 40.4289 46.6564 40.2565 47.0461C40.0841 47.4358 39.9967 47.8578 40 48.2839V57.0239C40 57.8195 40.3161 58.5826 40.8787 59.1452C41.4413 59.7078 42.2044 60.0239 43 60.0239H55C55.7957 60.0239 56.5587 59.7078 57.1213 59.1452C57.684 58.5826 58 57.8195 58 57.0239V48.2739C58.002 47.8494 57.9139 47.4294 57.7415 47.0416C57.5691 46.6537 57.3164 46.3068 57 46.0239ZM51 58.0239H47V53.0239C47 52.7586 47.1054 52.5043 47.2929 52.3168C47.4805 52.1292 47.7348 52.0239 48 52.0239H50C50.2652 52.0239 50.5196 52.1292 50.7071 52.3168C50.8947 52.5043 51 52.7586 51 53.0239V58.0239ZM56 57.0239C56 57.2891 55.8947 57.5434 55.7071 57.731C55.5196 57.9185 55.2652 58.0239 55 58.0239H53V53.0239C53 52.2282 52.684 51.4652 52.1214 50.9025C51.5587 50.3399 50.7957 50.0239 50 50.0239H48C47.2044 50.0239 46.4413 50.3399 45.8787 50.9025C45.3161 51.4652 45 52.2282 45 53.0239V58.0239H43C42.7348 58.0239 42.4805 57.9185 42.2929 57.731C42.1054 57.5434 42 57.2891 42 57.0239V48.2739C42.0002 48.1319 42.0306 47.9916 42.0893 47.8623C42.1479 47.7329 42.2334 47.6176 42.34 47.5239L48.34 42.2739C48.5225 42.1136 48.7571 42.0251 49 42.0251C49.2429 42.0251 49.4775 42.1136 49.66 42.2739L55.66 47.5239C55.7667 47.6176 55.8522 47.7329 55.9108 47.8623C55.9694 47.9916 55.9998 48.1319 56 48.2739V57.0239Z" fill="#00D7FF"/>
</g>
<defs>
<filter id="filter0_f_2_830" x="0" y="0" width="98" height="100.024" filterUnits="userSpaceOnUse" color-interpolation-filters="sRGB">
<feFlood flood-opacity="0" result="BackgroundImageFix"/>
<feBlend mode="normal" in="SourceGraphic" in2="BackgroundImageFix" result="shape"/>
<feGaussianBlur stdDeviation="20" result="effect1_foregroundBlur_2_830"/>
</filter>
</defs>
</svg>
